<svg id="Layer_1" data-name="Layer 1" xmlns="http://www.w3.org/2000/svg" viewBox="0 0 148 34"><defs><style>.cls-1{fill:#fff;}</style></defs><title>logo-pulse</title><path class="cls-1" d="M7.76,33.62,2.33,20.82a50.26,50.26,0,0,1,.41,6.34v6.46H0V17.8H3.82L9.34,30.62a39.21,39.21,0,0,1-.41-5.4V17.8h2.75V33.62Z"/><path class="cls-1" d="M25.16,28.47h-7.6c.21,2.47,1.37,3.27,3,3.27a5,5,0,0,0,3-1.08l1.21,1.67A7,7,0,0,1,20.28,34c-3.75,0-5.77-2.49-5.77-6.32s1.95-6.48,5.38-6.48,5.33,2.29,5.33,6.11C25.23,27.67,25.18,28.15,25.16,28.47Zm-2.84-2c0-2-.71-3.18-2.36-3.18-1.37,0-2.22.92-2.4,3.32h4.76Z"/><path class="cls-1" d="M34.87,33a5.29,5.29,0,0,1-3,.92c-2.38,0-3.64-1.37-3.64-4V23.61h-1.9V21.51h1.9V18.83l2.93-.34v3h2.82l-.3,2.11H31.11v6.32c0,1.19.39,1.67,1.28,1.67a2.71,2.71,0,0,0,1.44-.46Z"/><path class="cls-1" d="M45,33.62l-1.83-9.5-1.88,9.5H37.71L35,21.51H38l1.69,10,2.11-10h3l1.92,10,1.81-10h2.82L48.68,33.62Z"/><path class="cls-1" d="M63.95,27.55c0,3.82-2.13,6.41-5.7,6.41s-5.7-2.43-5.7-6.41c0-3.8,2.13-6.39,5.72-6.39S63.95,23.59,63.95,27.55Zm-8.31,0c0,2.91.89,4.19,2.61,4.19s2.61-1.3,2.61-4.19-.89-4.17-2.59-4.17S55.64,24.69,55.64,27.55Z"/><path class="cls-1" d="M73.89,21.35l-.5,2.84A4,4,0,0,0,72.31,24c-1.47,0-2.22,1.08-2.68,3.11v6.46H66.7V21.51h2.54l.27,2.38c.57-1.74,1.74-2.7,3.16-2.7A4.19,4.19,0,0,1,73.89,21.35Z"/><path class="cls-1" d="M75.72,33.62v-17l2.93-.32V33.62Zm10.58,0H82.93L78.76,27l4.05-5.49H85.9l-4,5.33Z"/><path class="cls-1" d="M98.43,17.8c4,0,6.41,1.63,6.41,5,0,3.64-2.63,5.27-6.2,5.27H96.78v5.52h-3V17.8Zm0,8c2,0,3.27-.69,3.27-3,0-2-1.21-2.82-3.27-2.82H96.78v5.81Z"/><path class="cls-1" d="M114.34,33.62l-.16-1.69a4.1,4.1,0,0,1-3.71,2c-2.2,0-3.39-1.42-3.39-3.75v-8.7H110v8.33c0,1.42.48,1.9,1.49,1.9A3,3,0,0,0,114,30V21.51h2.93V33.62Z"/><path class="cls-1" d="M123.23,30.66c0,.66.21.94.69.94a2.26,2.26,0,0,0,.69-.11l.62,2.06a5.45,5.45,0,0,1-2.08.41c-1.81,0-2.84-1.08-2.84-3.09V16.65l2.93-.32Z"/><path class="cls-1" d="M135.29,22.61l-1.14,1.76a5.2,5.2,0,0,0-3-1c-1.24,0-1.9.48-1.9,1.21s.48,1.17,2.54,1.74c2.47.66,3.87,1.67,3.87,3.82,0,2.52-2.34,3.85-5.1,3.85a7.09,7.09,0,0,1-4.83-1.72l1.49-1.67a5.22,5.22,0,0,0,3.25,1.21c1.33,0,2.17-.57,2.17-1.42,0-1.05-.48-1.37-2.75-2-2.5-.69-3.59-1.88-3.59-3.66,0-2,1.85-3.53,4.67-3.53A6.81,6.81,0,0,1,135.29,22.61Z"/><path class="cls-1" d="M147.93,28.47h-7.6c.21,2.47,1.37,3.27,3,3.27a5,5,0,0,0,3-1.08l1.21,1.67A7,7,0,0,1,143.06,34c-3.75,0-5.77-2.49-5.77-6.32s1.95-6.48,5.38-6.48S148,23.45,148,27.28C148,27.67,148,28.15,147.93,28.47Zm-2.84-2c0-2-.71-3.18-2.36-3.18-1.37,0-2.22.92-2.4,3.32h4.76Z"/><path class="cls-1" d="M1.89,3.43a2,2,0,0,1,.28.81,2.75,2.75,0,0,1,2-.81,2.15,2.15,0,0,1,1.63.65,2.66,2.66,0,0,1,.32.39,2.93,2.93,0,0,1,2.27-1,2.49,2.49,0,0,1,1.58.5c.45.39.6.86.6,2v5.69h-2V6.29c0-1-.11-1.14-.66-1.14a2.38,2.38,0,0,0-1.39.67v5.75h-2V6.36c0-1-.14-1.23-.73-1.23a2.2,2.2,0,0,0-1.37.61v5.83H.3V6a4.13,4.13,0,0,0-.3-2Z"/><path class="cls-1" d="M18,4.61a4.16,4.16,0,0,1,.92,2.92,4.34,4.34,0,0,1-1,3.09,3.26,3.26,0,0,1-2.64,1.11c-2.17,0-3.59-1.63-3.59-4.14s1.43-4.19,3.59-4.19A3.35,3.35,0,0,1,18,4.61ZM14.22,5.77A5.63,5.63,0,0,0,14,7.55a5.67,5.67,0,0,0,.26,2,1.16,1.16,0,0,0,1.06.66c.91,0,1.3-.81,1.3-2.7a3.74,3.74,0,0,0-.42-2.14,1.14,1.14,0,0,0-2,.39Z"/><path class="cls-1" d="M25.65,3.57V5l-3.54,5.11h3.67l-.5,1.45H19.4v-1.3L23.16,5H19.71V3.57Z"/><path class="cls-1" d="M29.19,1.36a1.29,1.29,0,1,1-2.57,0A1.31,1.31,0,0,1,27.93.06,1.28,1.28,0,0,1,29.19,1.36Zm-.25,2v8.19H26.85V3.71Z"/><path class="cls-1" d="M32.76,2.08V8.32c0,1.38,0,1.56.14,1.78a.48.48,0,0,0,.42.22.78.78,0,0,0,.23,0l.36,1.25a3.49,3.49,0,0,1-1.25.22,1.88,1.88,0,0,1-1.86-1.09,4.32,4.32,0,0,1-.19-1.8v-6A20.69,20.69,0,0,0,30.51.48L32.65,0A12.3,12.3,0,0,1,32.76,2.08Z"/><path class="cls-1" d="M37.1,2.08V8.32c0,1.38,0,1.56.15,1.78a.46.46,0,0,0,.42.22.77.77,0,0,0,.24,0l.36,1.25a3.5,3.5,0,0,1-1.25.22,1.88,1.88,0,0,1-1.86-1.09A4.29,4.29,0,0,1,35,8.86v-6A20.11,20.11,0,0,0,34.85.48L37,0A11.11,11.11,0,0,1,37.1,2.08Z"/><path class="cls-1" d="M40.39,3.86a5.38,5.38,0,0,1,2.19-.47c1.35,0,2.27.5,2.58,1.39a3.93,3.93,0,0,1,.14,1.44l-.05,2.69v.14A1.63,1.63,0,0,0,46,10.69L44.89,12a2.25,2.25,0,0,1-1.13-1,3.51,3.51,0,0,1-.49.42,2.76,2.76,0,0,1-1.61.44c-1.78,0-2.75-.91-2.75-2.5,0-1.88,1.3-2.76,3.85-2.76a4.38,4.38,0,0,1,.47,0V6.3c0-.89-.17-1.19-.94-1.19A4.41,4.41,0,0,0,40,6l-.89-1.5A7.74,7.74,0,0,1,40.39,3.86Zm2.71,4.2c-1.45,0-2,.26-2,1.22a1,1,0,0,0,.93,1,1.51,1.51,0,0,0,1.09-.55l0-1.72Z"/></svg>