<?xml version="1.0" encoding="UTF-8" standalone="no"?>
<svg width="20px" height="18px" viewBox="0 0 20 18" version="1.1" xmlns="http://www.w3.org/2000/svg" xmlns:xlink="http://www.w3.org/1999/xlink">
    <!-- Generator: Sketch 39.1 (31720) - http://www.bohemiancoding.com/sketch -->
    <title>icon favorite</title>
    <desc>Created with Sketch.</desc>
    <defs></defs>
    <g id="Toolkit" stroke="none" stroke-width="1" fill="none" fill-rule="evenodd">
        <g id="Mobile---Favs" transform="translate(-566.000000, -1071.000000)" fill="#E14164">
            <g id="Posts" transform="translate(281.000000, 194.000000)">
                <path d="M295.542983,894.479408 C295.395842,894.639344 295.203918,894.727309 295.0008,894.727309 C294.797681,894.727309 294.605758,894.639344 294.458617,894.479408 L286.493802,885.810876 C285.522991,884.814474 285,883.530188 285,882.170732 C285,879.319072 287.319072,877 290.170732,877 C291.890044,877 293.491004,877.84926 294.455418,879.272691 L294.493802,879.331867 C294.60096,879.504598 294.789684,879.608557 294.994402,879.610156 C295.202319,879.616553 295.386246,879.510996 295.498201,879.339864 C296.459416,877.87485 298.077969,877 299.827669,877 C302.680928,877 305,879.319072 305,882.170732 C305,883.530188 304.478609,884.814474 303.528589,885.785286 C303.52379,885.788485 295.542983,894.479408 295.542983,894.479408 Z" id="icon-favorite"></path>
            </g>
        </g>
    </g>
</svg>