<?xml version="1.0" encoding="UTF-8" standalone="no"?>
<svg width="20px" height="20px" viewBox="0 0 20 20" version="1.1" xmlns="http://www.w3.org/2000/svg" xmlns:xlink="http://www.w3.org/1999/xlink">
    <!-- Generator: Sketch 39.1 (31720) - http://www.bohemiancoding.com/sketch -->
    <title>icon link</title>
    <desc>Created with Sketch.</desc>
    <defs></defs>
    <g id="Symbols" stroke="none" stroke-width="1" fill="none" fill-rule="evenodd" stroke-linecap="round" stroke-linejoin="round">
        <g id="Post-1" transform="translate(-17.000000, -350.000000)" stroke="#ADADAD">
            <g id="Post">
                <g id="link" transform="translate(16.000000, 348.000000)">
                    <g id="icon-link" transform="translate(11.500000, 11.500000) rotate(-45.000000) translate(-11.500000, -11.500000) translate(0.000000, 7.000000)">
                        <path d="M7.90278211,8.50661626 L4.2270695,8.50661626 C2.00326337,8.50661626 0.183785631,6.63516068 0.183785631,4.34782609 L0.183785631,4.34782609 C0.183785631,2.06049149 2.00326337,0.189035917 4.2270695,0.189035917 L9.74063842,0.189035917 C11.9644445,0.189035917 13.7839223,2.06049149 13.7839223,4.34782609 L13.7839223,4.34782609" id="Stroke-1"></path>
                        <path d="M14.4959446,0.189035917 L18.1716572,0.189035917 C20.3954633,0.189035917 22.2149411,2.06049149 22.2149411,4.34782609 L22.2149411,4.34782609 C22.2149411,6.63516068 20.3954633,8.50661626 18.1716572,8.50661626 L12.6580883,8.50661626 C10.4342821,8.50661626 8.6148044,6.63516068 8.6148044,4.34782609 L8.6148044,4.34782609" id="Stroke-3"></path>
                    </g>
                </g>
            </g>
        </g>
    </g>
</svg>