<?xml version="1.0" encoding="UTF-8" standalone="no"?>
<svg width="22px" height="20px" viewBox="0 0 22 20" version="1.1" xmlns="http://www.w3.org/2000/svg" xmlns:xlink="http://www.w3.org/1999/xlink">
    <!-- Generator: Sketch 39.1 (31720) - http://www.bohemiancoding.com/sketch -->
    <title>icon favorite</title>
    <desc>Created with Sketch.</desc>
    <defs></defs>
    <g id="Symbols" stroke="none" stroke-width="1" fill="none" fill-rule="evenodd" stroke-linecap="round" stroke-linejoin="round">
        <g id="Post-1" transform="translate(-284.000000, -350.000000)" stroke="#ADADAD">
            <g id="Post">
                <g id="link" transform="translate(16.000000, 348.000000)">
                    <path d="M279.542983,20.4794082 C279.395842,20.6393443 279.203918,20.7273091 279.0008,20.7273091 C278.797681,20.7273091 278.605758,20.6393443 278.458617,20.4794082 L270.493802,11.8108756 C269.522991,10.8144742 269,9.53018792 269,8.17073171 C269,5.31907237 271.319072,3 274.170732,3 C275.890044,3 277.491004,3.8492603 278.455418,5.27269092 L278.493802,5.33186725 C278.60096,5.50459816 278.789684,5.60855658 278.994402,5.61015594 C279.202319,5.61655338 279.386246,5.5109956 279.498201,5.33986405 C280.459416,3.87485006 282.077969,3 283.827669,3 C286.680928,3 289,5.31907237 289,8.17073171 C289,9.53018792 288.478609,10.8144742 287.528589,11.7852859 C287.52379,11.7884846 279.542983,20.4794082 279.542983,20.4794082 Z" id="icon-favorite"></path>
                </g>
            </g>
        </g>
    </g>
</svg>