<svg width="23" height="20" viewBox="0 0 23 20" xmlns="http://www.w3.org/2000/svg">
    <path d="M19.739 5.453c.015.196.015.39.015.586 0 5.962-4.537 12.829-12.83 12.829-2.554 0-4.928-.738-6.924-2.024.363.042.713.056 1.09.056a9.017 9.017 0 0 0 5.595-1.927 4.513 4.513 0 0 1-4.213-3.126c.279.042.556.07.85.07.404 0 .81-.056 1.186-.154A4.51 4.51 0 0 1 .894 7.337v-.056c.6.338 1.298.546 2.038.573A4.504 4.504 0 0 1 .923 4.101c0-.84.221-1.607.613-2.278a12.81 12.81 0 0 0 9.298 4.718 4.858 4.858 0 0 1-.112-1.031A4.507 4.507 0 0 1 15.229 1c1.299 0 2.472.546 3.295 1.423a8.822 8.822 0 0 0 2.861-1.087 4.49 4.49 0 0 1-1.982 2.484A9.029 9.029 0 0 0 22 3.12a9.69 9.69 0 0 1-2.261 2.332" stroke="#E14164" fill="none" stroke-linecap="round" stroke-linejoin="round"/>
</svg>
