<svg data-name="Layer 1" xmlns="http://www.w3.org/2000/svg" viewBox="0 0 371.86 60.92"><path d="M0 0h213.04v60.92H0z"/><path d="M203.48 43.73a4 4 0 0 1-1.12.18c-1.24 0-1.83-.53-1.83-2.07V30.25c0-6.09-4.85-9-10.58-9-4.37 0-6.74.53-11.4 2.42l-1 6.13 6.09.65.86-3a8.27 8.27 0 0 1 4.08-.77c4.31 0 4.37 3.25 4.37 6v.89a34.86 34.86 0 0 0-4.37-.24c-6.09 0-12.41 1.54-12.41 8.1 0 5.55 4.37 7.62 8.21 7.62a9.65 9.65 0 0 0 8.57-5.32c.35 3.25 2.31 5.32 5.85 5.32a10.3 10.3 0 0 0 4.79-1.24zm-16.37-.18a2.79 2.79 0 0 1-3.11-3.07c0-2.9 2.36-3.66 5.08-3.66a28.11 28.11 0 0 1 3.84.35c-.19 4.43-3.09 6.38-5.81 6.38zM176.88 7.74L165.36 48.4h-7.5l11.51-40.66zm-15.48 0L149.87 48.4h-7.5l11.52-40.66zm-32 14h8v9.57h-8zm0 17.08h8v9.58h-8zm-11.61-.35l6 .59-1.65 9.34H98.88l-.77-4 14.65-16.84h-8.33l-1.18 4.14-5.5-.59.95-9.34h23.4l.59 4-14.77 16.84h8.63zM79.6 21.21c-9.57 0-14.3 6.44-14.3 14.24C65.3 44 71 49 79.19 49c8.51 0 14.65-5.38 14.65-13.89 0-7.46-4.67-13.9-14.24-13.9zm-.18 21.92c-4.14 0-6.26-3.55-6.26-8.15 0-5 2.42-7.92 6.32-7.92 3.6 0 6.5 2.42 6.5 7.8.02 5.09-2.6 8.28-6.56 8.28zm-21-.53H62v5.8H50.81v-15c0-4.61-1.54-6.38-4.55-6.38-3.66 0-5.14 2.6-5.14 6.32v9.28h3.55v5.78H33.5v-15c0-4.62-1.5-6.4-4.55-6.4-3.66 0-5.14 2.6-5.14 6.32v9.28h5.08v5.8H12.64v-5.79h3.55V27.54h-3.55v-5.8h11.17v4a8.83 8.83 0 0 1 8.1-4.55c3.84 0 7.39 1.83 8.69 5.73a8.93 8.93 0 0 1 8.69-5.73c4.79 0 9.16 2.9 9.16 9.22zM223.93-.03h147.94v60.92H223.93z" fill="#fff"/><path d="M252 48.74c-3.72 0-7.14-1.56-8.94-4.62v14h6.54v2.76h-14.82v-2.72h5V24.32h-5V21.5h8.34v5.7c1.62-3.2 4.56-6.2 9.48-6.2 6.84 0 11.52 4.86 11.52 13.08 0 6.92-3.3 14.66-12.12 14.66zm0-24.84c-5 0-8.76 5.1-8.94 9.06v4.74a8.25 8.25 0 0 0 8.4 8.1c6.66 0 9.18-5.7 9.18-11.46 0-6.78-3.72-10.44-8.64-10.44zm36.2 24.24v-5.28a10.26 10.26 0 0 1-9.42 5.88c-5.28 0-9.24-3.06-9.24-10.38v-14h-4.92V21.5h8.22v16.08c0 6.06 2.88 8.22 6.9 8.22 4.8 0 8.28-4.68 8.46-8.52v-13h-5.88V21.5h9.18v23.88h5v2.76zm9.68 0v-2.76h4.92V9.62h-5V6.86h8.28v38.52H311v2.76zm26.12.6c-3.72 0-6.42-1.2-7.86-3.12v2.82h-2.94v-8.28h2.94c0 3.9 2.88 5.64 7.26 5.64 4 0 7-1.5 7-4.86 0-8-16.86-2.1-16.86-12.36 0-5.4 4.68-7.62 9.36-7.62 3.24 0 5.52 1.08 6.84 2.94v-2.52h2.94v8.28h-2.94c0-4.08-2.22-5.76-6.42-5.76-3.72 0-6.3 1.32-6.3 4.32 0 7.56 16.74 1.68 16.74 12.36-.02 4.98-3.62 8.16-9.76 8.16zm24.73 0c-7.44 0-12.3-5-12.3-13.56C336.43 26.9 341 21 348.37 21s10.92 5.58 10.92 11.7a17.55 17.55 0 0 1-.3 3h-19.08c.18 6.42 3.42 10.14 9.06 10.14 4.2 0 6.84-2 7.8-5.76l2.76.66c-.78 4.46-4.53 8-10.8 8zm-.54-24.84c-5.34 0-7.68 4.2-8.22 9h15.84c.42-4.26-1.98-9-7.62-9z"/></svg>