<svg id="Layer_1" data-name="Layer 1" xmlns="http://www.w3.org/2000/svg" viewBox="0 0 371.86 60.92"><defs><style>.cls-1{fill:#fff;}</style></defs><title>mozilla-pulse_wordmark-interim</title><rect width="213.04" height="60.92"/><path class="cls-1" d="M203.48,43.73a4,4,0,0,1-1.12.18c-1.24,0-1.83-.53-1.83-2.07V30.25c0-6.09-4.85-9-10.58-9-4.37,0-6.74.53-11.4,2.42l-1,6.13,6.09.65.86-3a8.27,8.27,0,0,1,4.08-.77c4.31,0,4.37,3.25,4.37,6v.89a34.86,34.86,0,0,0-4.37-.24c-6.09,0-12.41,1.54-12.41,8.1,0,5.55,4.37,7.62,8.21,7.62a9.65,9.65,0,0,0,8.57-5.32c.35,3.25,2.31,5.32,5.85,5.32a10.3,10.3,0,0,0,4.79-1.24Zm-16.37-.18A2.79,2.79,0,0,1,184,40.48c0-2.9,2.36-3.66,5.08-3.66a28.11,28.11,0,0,1,3.84.35C192.73,41.6,189.83,43.55,187.11,43.55ZM176.88,7.74,165.36,48.4h-7.5L169.37,7.74Zm-15.48,0L149.87,48.4h-7.5L153.89,7.74Zm-32,14h8v9.57h-8Zm0,17.08h8V48.4h-8Zm-11.61-.35,6,.59-1.65,9.34H98.88l-.77-4,14.65-16.84h-8.33l-1.18,4.14-5.5-.59.95-9.34h23.4l.59,4L107.92,42.61h8.63ZM79.6,21.21c-9.57,0-14.3,6.44-14.3,14.24C65.3,44,71,49,79.19,49c8.51,0,14.65-5.38,14.65-13.89C93.84,27.65,89.17,21.21,79.6,21.21Zm-.18,21.92c-4.14,0-6.26-3.55-6.26-8.15,0-5,2.42-7.92,6.32-7.92,3.6,0,6.5,2.42,6.5,7.8C86,39.95,83.38,43.14,79.42,43.14Zm-21-.53H62V48.4H50.81v-15c0-4.61-1.54-6.38-4.55-6.38-3.66,0-5.14,2.6-5.14,6.32v9.28h3.55V48.4H33.5v-15C33.5,28.78,32,27,28.95,27c-3.66,0-5.14,2.6-5.14,6.32v9.28h5.08V48.4H12.64V42.61h3.55V27.54H12.64V21.74H23.81v4a8.83,8.83,0,0,1,8.1-4.55c3.84,0,7.39,1.83,8.69,5.73a8.93,8.93,0,0,1,8.69-5.73c4.79,0,9.16,2.9,9.16,9.22Z"/><rect class="cls-1" x="223.93" y="-0.03" width="147.94" height="60.92"/><path d="M252,48.74c-3.72,0-7.14-1.56-8.94-4.62v14h6.54v2.76H234.78V58.16h5V24.32h-5V21.5h8.34v5.7C244.74,24,247.68,21,252.6,21c6.84,0,11.52,4.86,11.52,13.08C264.12,41,260.82,48.74,252,48.74Zm0-24.84c-5,0-8.76,5.1-8.94,9.06V37.7a8.25,8.25,0,0,0,8.4,8.1c6.66,0,9.18-5.7,9.18-11.46C260.64,27.56,256.92,23.9,252,23.9Z"/><path d="M288.2,48.14V42.86a10.26,10.26,0,0,1-9.42,5.88c-5.28,0-9.24-3.06-9.24-10.38v-14h-4.92V21.5h8.22V37.58c0,6.06,2.88,8.22,6.9,8.22,4.8,0,8.28-4.68,8.46-8.52v-13h-5.88V21.5h9.18V45.38h5v2.76Z"/><path d="M297.88,48.14V45.38h4.92V9.62h-5V6.86h8.28V45.38H311v2.76Z"/><path d="M324,48.74c-3.72,0-6.42-1.2-7.86-3.12v2.82h-2.94V40.16h2.94c0,3.9,2.88,5.64,7.26,5.64,4,0,7-1.5,7-4.86,0-8-16.86-2.1-16.86-12.36,0-5.4,4.68-7.62,9.36-7.62,3.24,0,5.52,1.08,6.84,2.94V21.38h2.94v8.28h-2.94c0-4.08-2.22-5.76-6.42-5.76-3.72,0-6.3,1.32-6.3,4.32,0,7.56,16.74,1.68,16.74,12.36C333.74,45.56,330.14,48.74,324,48.74Z"/><path d="M348.73,48.74c-7.44,0-12.3-5-12.3-13.56C336.43,26.9,341,21,348.37,21s10.92,5.58,10.92,11.7a17.55,17.55,0,0,1-.3,3H339.91c.18,6.42,3.42,10.14,9.06,10.14,4.2,0,6.84-2,7.8-5.76l2.76.66C358.75,45.2,355,48.74,348.73,48.74Zm-.54-24.84c-5.34,0-7.68,4.2-8.22,9h15.84C356.23,28.64,353.83,23.9,348.19,23.9Z"/></svg>