<svg width="40" height="40" xmlns="http://www.w3.org/2000/svg" viewBox="0 0 40 40">
    <g transform="translate(1 1)" fill="none" fill-rule="evenodd">
        <circle stroke="#0d10bf" stroke-width="2" cx="18.5" cy="18.5" r="18.5"/>
        <path d="M27.262 15.57c0-.198 0-.394-.014-.589a9.205 9.205 0 0 0 2.252-2.353 8.94 8.94 0 0 1-2.592.716 4.56 4.56 0 0 0 1.985-2.515 9.008 9.008 0 0 1-2.867 1.104 4.496 4.496 0 0 0-6.386-.198 4.572 4.572 0 0 0-1.306 4.344A12.79 12.79 0 0 1 9.03 11.33a4.568 4.568 0 0 0 1.398 6.067 4.456 4.456 0 0 1-2.049-.568v.058A4.54 4.54 0 0 0 12 21.342a4.46 4.46 0 0 1-2.037.078 4.522 4.522 0 0 0 4.216 3.157 9.015 9.015 0 0 1-6.68 1.885 12.717 12.717 0 0 0 6.919 2.038c8.302.003 12.842-6.924 12.842-12.93z" fill="#0d10bf"/>
    </g>
</svg>
