<svg width="12" height="12" xmlns="http://www.w3.org/2000/svg">
  <path d="M4.01 6.5h3.98c-.08 2.365-.715 4.3-1.443 4.973a5.566 5.566 0 0 1-1.094 0c-.728-.672-1.364-2.608-1.444-4.973zm0-1c.08-2.365.715-4.3 1.443-4.973a5.566 5.566 0 0 1 1.094 0c.728.672 1.364 2.608 1.444 4.973H4.009zm-3.488 1H3.01c.055 1.846.419 3.494 1.003 4.63A5.504 5.504 0 0 1 .522 6.5zm0-1A5.504 5.504 0 0 1 4.012.87C3.428 2.006 3.064 3.654 3.01 5.5H.522zm10.956 0H8.99C8.936 3.654 8.572 2.006 7.988.87a5.504 5.504 0 0 1 3.49 4.63zm0 1a5.504 5.504 0 0 1-3.49 4.63c.584-1.136.948-2.784 1.003-4.63h2.487z" fill="#0d10bf" fill-rule="evenodd"/>
</svg>
